# xmcd
#
# Track frame offsets:
# 150
# 34855
# 63017
# 85497
# 108905
# 153800
# 181820
# 209540
# 235180
# 243435
# 261012
#
# Disc length: 3854 seconds
#
#
# Revision: 5
# Processed by: cddbd v1.5.2PL0 Copyright (c) Steve Scherf et al.
# Submitted via: FreeRIP 2.951 
#
DISCID=870f0c0b
DTITLE=Alexander von Zemlinsky - String Quartet No. 3 and Lyrische Symphonie
DYEAR=1995
DGENRE=
TTITLE0=String Quartet No. 3 - I. Allegretto
TTITLE1=String Quartet No. 3 - II. Thema mit Variationen
TTITLE2=String Quartet No. 3 - III. Romanza
TTITLE3=String Quartet No. 3 - IV. Burleske
TTITLE4=Lyrische Symphonie - Langsam
TTITLE5=Lyrische Symphonie - Lebhaft
TTITLE6=Lyrische Symphonie - Adagio
TTITLE7=Lyrische Symphonie - Langsam
TTITLE8=Lyrische Symphonie - Feurig und kraftvoll
TTITLE9=Lyrische Symphonie - Sehr massige Viertel
TTITLE10=Lyrische Symphonie - Molto Adagio
EXTD=
EXTT0=
EXTT1=
EXTT2=
EXTT3=
EXTT4=
EXTT5=
EXTT6=
EXTT7=
EXTT8=
EXTT9=
EXTT10=
PLAYORDER=
